<?xml version="1.0" encoding="UTF-8" standalone="no"?>
<svg width="512px" height="512px" viewBox="0 0 512 512" version="1.1" xmlns="http://www.w3.org/2000/svg" xmlns:xlink="http://www.w3.org/1999/xlink">
    <title>Querygrid</title>
    <desc>Copyright Teradata, Inc.</desc>
    <defs></defs>
    <g id="querygrid" fill-rule="evenodd">
        <g>
            <path d="M285.440662,310.577747 L301.207107,326.344192 L256,371.551299 L141.448701,257 L256,142.448701 L370.551299,257 L329.491378,298.059921 L312.654383,281.222925 C316.090142,273.517325 318,264.981698 318,256 C318,221.758346 290.241654,194 256,194 C221.758346,194 194,221.758346 194,256 C194,290.241654 221.758346,318 256,318 C266.654982,318 276.682206,315.312246 285.440662,310.577747 Z M356.22106,324.789603 L419.851834,261.158829 L424.287792,256.722871 L354.351003,186.786082 L383.289935,157.84715 L453.58997,228.147186 L453.442785,228.294372 L453.737157,228.294373 L453.737157,58.2943721 L283.737157,58.2943722 L283.737157,58.5887443 L283.884343,58.4415586 L355.005663,129.562879 L326.066732,158.501811 L260.15735,92.5924292 L255.721392,88.1564712 L188.15466,155.723203 L159.215729,126.784271 L227.852814,58.1471858 L228,58.2943722 L228,58.0000001 L58,57.9999996 L58.0000001,228 L58.2943728,228 L58.1471864,227.852814 L130.931457,155.068542 L159.870389,184.007474 L87.1549924,256.722871 L91.5909504,261.158829 L158.000332,327.56821 L129.768507,355.800035 L58.5599206,284.591449 L58.707107,284.444263 L58.4127342,284.444263 L58.4127349,454.444262 L228.412734,454.444263 L228.412734,454.14989 L228.265548,454.297076 L158.052778,384.084307 L186.284603,355.852482 L255.721392,425.289271 L260.15735,420.853313 L327.936789,353.073874 L355.668614,380.805699 L283.297077,453.177236 L283.149892,453.030051 L283.149892,453.324422 L453.149891,453.324423 L453.149891,283.324422 L452.855519,283.324423 L453.002705,283.471609 L383.952886,352.521428 L356.22106,324.789603 Z M257,289 C274.673112,289 289,274.673112 289,257 C289,239.326888 274.673112,225 257,225 C239.326888,225 225,239.326888 225,257 C225,274.673112 239.326888,289 257,289 Z" id="Combined-Shape"></path>
        </g>
    </g>
</svg>