<?xml version="1.0" encoding="UTF-8" standalone="no"?>
<svg width="512px" height="512px" viewBox="0 0 512 512" version="1.1" xmlns="http://www.w3.org/2000/svg" xmlns:xlink="http://www.w3.org/1999/xlink">
    <title>Viewpoint</title>
    <desc>Copyright Teradata, Inc.</desc>
    <defs></defs>
    <g id="viewpoint" fill-rule="evenodd">
        <g>
            <path d="M312.785317,199 L374.529268,199 L465.919832,290.390564 L256.230113,500.080283 L46.080168,289.930337 L137.010505,199 L198.214683,199 L107.714683,289.5 L255.5,437.285317 L403.285317,289.5 L312.785317,199 Z" id="Combined-Shape"></path>
            <path d="M212.125441,211.156875 L133.698748,289.583568 L231.902568,387.787388 L256.725266,413 L286.943021,381.500533 L378.609087,289.834468 L300.182393,211.407775 L300.182393,183.127705 L402.045809,183.127705 L256.5,14.02662 L110.954191,183.127705 L212.125441,183.127705 L212.125441,211.156875 Z M213.322896,243.573743 L213.503481,334.587045 L167.631305,288.80876 L213.322896,243.573743 Z M301.46369,243.573743 L301.283105,334.587045 L347.155282,288.80876 L301.46369,243.573743 Z" id="Combined-Shape"></path>
        </g>
    </g>
</svg>